<svg xmlns="http://www.w3.org/2000/svg" viewBox="0 0 222.685 273.373">
	<!--
		This file was provided as part of a weekly web design tutorial series.
		Sign-up for our newsletter, at http://codifydesign.com, to be notified
		about each new episode of Creating Web Media
	-->
	<title>boat</title>
	<polygon points="102.633 184.241 103.079 29.46 2.047 175.69 102.633 184.241" style="fill: #fff"/>
	<path d="M112.582, 5.611s71.9, 103.084, 3.075, 174.441c-.675.7, 94.037-33.369, 94.037-33.369S202.8, 36.742, 112.582, 5.611Z" style="fill: #fff"/>
	<rect x="107.56" width="2.968" height="197.523" style="fill: #603813"/>
	<polygon points="105.6 1.169 105.6 23.017 45.938 23.017 105.6 1.169" style="fill: #c1272d"/>
	<path d="M209.983, 199.143l-19.5-14.258-71.438-.246-6.162, 18.184S209.187, 199.143, 209.983, 199.143Z" style="fill: #770614"/>
	<polygon points="222.125 195.39 0.114 195.39 34.03 273.373 172.372 272.124 222.125 195.39" style="fill: #ba0606"/>
	<rect x="130.81" y="206.767" width="32.489" height="11.484" rx="2.976" ry="2.976" transform="translate(294.109 425.018) rotate(-180)" style="fill: #660410"/>
	<rect x="168.348" y="207.327" width="32.489" height="11.484" rx="2.976" ry="2.976" transform="translate(369.184 426.139) rotate(-180)" style="fill: #660410"/>
	<polygon points="2.941 202.111 218.063 202.145 222.685 195.283 0 195.283 2.941 202.111" style="fill: #f7931e"/>
</svg>
